<svg width="44" height="24" viewBox="0 0 44 24" fill="none" xmlns="http://www.w3.org/2000/svg">
    <path d="M8.41635 23.2983C6.82544 23.2983 5.40854 23.0249 4.16564 22.478C2.92984 21.924 1.95328 21.1641 1.23595 20.1982C0.525724 19.2251 0.159957 18.103 0.13865 16.8317H4.78354C4.81195 17.3643 4.98595 17.8331 5.30555 18.2379C5.63226 18.6357 6.0655 18.9446 6.60527 19.1648C7.14504 19.3849 7.75229 19.495 8.427 19.495C9.13013 19.495 9.75158 19.3707 10.2913 19.1222C10.8311 18.8736 11.2537 18.5291 11.5591 18.0888C11.8645 17.6484 12.0172 17.1406 12.0172 16.5653C12.0172 15.983 11.8538 15.468 11.5271 15.0206C11.2075 14.5661 10.7459 14.2109 10.1422 13.9553C9.54561 13.6996 8.83538 13.5717 8.01152 13.5717H5.97672V10.1839H8.01152C8.70754 10.1839 9.32189 10.0632 9.85456 9.82173C10.3943 9.58026 10.8134 9.24645 11.1117 8.82031C11.41 8.38707 11.5591 7.88281 11.5591 7.30753C11.5591 6.76065 11.4277 6.28125 11.1649 5.86932C10.9092 5.45028 10.547 5.12358 10.0783 4.8892C9.61663 4.65483 9.07686 4.53764 8.45896 4.53764C7.83396 4.53764 7.26223 4.65128 6.74376 4.87855C6.2253 5.09872 5.80981 5.41477 5.49731 5.8267C5.18481 6.23864 5.01791 6.72159 4.9966 7.27557H0.575439C0.596746 6.01847 0.955411 4.91051 1.65143 3.9517C2.34746 2.9929 3.28496 2.24361 4.46393 1.70383C5.65001 1.15696 6.98879 0.883522 8.48027 0.883522C9.98595 0.883522 11.3034 1.15696 12.4327 1.70383C13.5619 2.25071 14.4391 2.98935 15.0641 3.91974C15.6962 4.84304 16.0087 5.87997 16.0016 7.03054C16.0087 8.25213 15.6287 9.27131 14.8617 10.0881C14.1017 10.9048 13.111 11.4233 11.8894 11.6435V11.8139C13.4945 12.0199 14.7161 12.5774 15.5541 13.4865C16.3993 14.3885 16.8183 15.5178 16.8112 16.8743C16.8183 18.1172 16.4597 19.2216 15.7352 20.1875C15.0179 21.1534 14.0271 21.9134 12.7629 22.4673C11.4987 23.0213 10.0499 23.2983 8.41635 23.2983ZM20.2549 1.18182H25.9439L31.9524 15.8409H32.2081L38.2166 1.18182H43.9055V23H39.4311V8.79901H39.25L33.6037 22.8935H30.5568L24.9105 8.74574H24.7294V23H20.2549V1.18182Z" fill="currentColor"/>
</svg>
