<svg width="107" height="24" viewBox="0 0 107 24" fill="none" xmlns="http://www.w3.org/2000/svg">
    <path d="M7.11005 2.15C9.33005 2.15 11.27 2.58 12.93 3.44C14.61 4.28 15.9 5.5 16.8 7.1C17.72 8.68 18.18 10.53 18.18 12.65C18.18 14.77 17.72 16.61 16.8 18.17C15.9 19.73 14.61 20.93 12.93 21.77C11.27 22.59 9.33005 23 7.11005 23H0.300049V2.15H7.11005ZM7.11005 20.21C9.55005 20.21 11.42 19.55 12.72 18.23C14.02 16.91 14.67 15.05 14.67 12.65C14.67 10.23 14.02 8.34 12.72 6.98C11.42 5.62 9.55005 4.94 7.11005 4.94H3.72005V20.21H7.11005ZM36.7196 14.33C36.7196 14.95 36.6796 15.51 36.5996 16.01H23.9696C24.0696 17.33 24.5596 18.39 25.4396 19.19C26.3196 19.99 27.3996 20.39 28.6796 20.39C30.5196 20.39 31.8196 19.62 32.5796 18.08H36.2696C35.7696 19.6 34.8596 20.85 33.5396 21.83C32.2396 22.79 30.6196 23.27 28.6796 23.27C27.0996 23.27 25.6796 22.92 24.4196 22.22C23.1796 21.5 22.1996 20.5 21.4796 19.22C20.7796 17.92 20.4296 16.42 20.4296 14.72C20.4296 13.02 20.7696 11.53 21.4496 10.25C22.1496 8.95 23.1196 7.95 24.3596 7.25C25.6196 6.55 27.0596 6.2 28.6796 6.2C30.2396 6.2 31.6296 6.54 32.8496 7.22C34.0696 7.9 35.0196 8.86 35.6996 10.1C36.3796 11.32 36.7196 12.73 36.7196 14.33ZM33.1496 13.25C33.1296 11.99 32.6796 10.98 31.7996 10.22C30.9196 9.46 29.8296 9.08 28.5296 9.08C27.3496 9.08 26.3396 9.46 25.4996 10.22C24.6596 10.96 24.1596 11.97 23.9996 13.25H33.1496ZM67.2352 2.15L61.0552 23H57.1852L52.8052 7.22L48.1552 23L44.3152 23.03L38.4052 2.15H42.0352L46.3552 19.13L51.0352 2.15H54.8752L59.2252 19.04L63.5752 2.15H67.2352ZM68.9159 14.66C68.9159 13 69.2559 11.53 69.9359 10.25C70.6359 8.97 71.5759 7.98 72.7559 7.28C73.9559 6.56 75.2759 6.2 76.7159 6.2C78.0159 6.2 79.1459 6.46 80.1059 6.98C81.0859 7.48 81.8659 8.11 82.4459 8.87V6.47H85.8959V23H82.4459V20.54C81.8659 21.32 81.0759 21.97 80.0759 22.49C79.0759 23.01 77.9359 23.27 76.6559 23.27C75.2359 23.27 73.9359 22.91 72.7559 22.19C71.5759 21.45 70.6359 20.43 69.9359 19.13C69.2559 17.81 68.9159 16.32 68.9159 14.66ZM82.4459 14.72C82.4459 13.58 82.2059 12.59 81.7259 11.75C81.2659 10.91 80.6559 10.27 79.8959 9.83C79.1359 9.39 78.3159 9.17 77.4359 9.17C76.5559 9.17 75.7359 9.39 74.9759 9.83C74.2159 10.25 73.5959 10.88 73.1159 11.72C72.6559 12.54 72.4259 13.52 72.4259 14.66C72.4259 15.8 72.6559 16.8 73.1159 17.66C73.5959 18.52 74.2159 19.18 74.9759 19.64C75.7559 20.08 76.5759 20.3 77.4359 20.3C78.3159 20.3 79.1359 20.08 79.8959 19.64C80.6559 19.2 81.2659 18.56 81.7259 17.72C82.2059 16.86 82.4459 15.86 82.4459 14.72ZM93.8079 0.8V23H90.3879V0.8H93.8079ZM102.288 9.26V18.41C102.288 19.03 102.428 19.48 102.708 19.76C103.008 20.02 103.508 20.15 104.208 20.15H106.308V23H103.608C102.068 23 100.888 22.64 100.068 21.92C99.2481 21.2 98.8381 20.03 98.8381 18.41V9.26H96.8881V6.47H98.8381V2.36H102.288V6.47H106.308V9.26H102.288Z" fill="currentColor"/>
</svg>
