<svg width="196" height="27" viewBox="0 0 196 27" fill="none" xmlns="http://www.w3.org/2000/svg">
    <path d="M15.2634 -1.43051e-06H19.1634V21H15.2634V-1.43051e-06ZM4.40335 21H0.50335V-1.43051e-06H4.40335V21ZM15.5634 12H4.07335V8.67H15.5634V12ZM31.6305 21.21C29.9905 21.21 28.5305 20.86 27.2505 20.16C25.9705 19.44 24.9605 18.46 24.2205 17.22C23.4805 15.98 23.1105 14.57 23.1105 12.99C23.1105 11.39 23.4805 9.98 24.2205 8.76C24.9605 7.52 25.9705 6.55 27.2505 5.85C28.5305 5.15 29.9905 4.8 31.6305 4.8C33.2905 4.8 34.7605 5.15 36.0405 5.85C37.3405 6.55 38.3505 7.51 39.0705 8.73C39.8105 9.95 40.1805 11.37 40.1805 12.99C40.1805 14.57 39.8105 15.98 39.0705 17.22C38.3505 18.46 37.3405 19.44 36.0405 20.16C34.7605 20.86 33.2905 21.21 31.6305 21.21ZM31.6305 18C32.5505 18 33.3705 17.8 34.0905 17.4C34.8105 17 35.3705 16.42 35.7705 15.66C36.1905 14.9 36.4005 14.01 36.4005 12.99C36.4005 11.95 36.1905 11.06 35.7705 10.32C35.3705 9.56 34.8105 8.98 34.0905 8.58C33.3705 8.18 32.5605 7.98 31.6605 7.98C30.7405 7.98 29.9205 8.18 29.2005 8.58C28.5005 8.98 27.9405 9.56 27.5205 10.32C27.1005 11.06 26.8905 11.95 26.8905 12.99C26.8905 14.01 27.1005 14.9 27.5205 15.66C27.9405 16.42 28.5005 17 29.2005 17.4C29.9205 17.8 30.7305 18 31.6305 18ZM63.9864 4.8C65.2664 4.8 66.3964 5.05 67.3764 5.55C68.3764 6.05 69.1564 6.82 69.7164 7.86C70.2764 8.88 70.5564 10.2 70.5564 11.82V21H66.8064V12.3C66.8064 10.88 66.4964 9.82 65.8764 9.12C65.2564 8.42 64.3664 8.07 63.2064 8.07C62.3864 8.07 61.6564 8.25 61.0164 8.61C60.3964 8.97 59.9064 9.5 59.5464 10.2C59.2064 10.9 59.0364 11.79 59.0364 12.87V21H55.2864V12.3C55.2864 10.88 54.9764 9.82 54.3564 9.12C53.7364 8.42 52.8464 8.07 51.6864 8.07C50.8664 8.07 50.1364 8.25 49.4964 8.61C48.8764 8.97 48.3864 9.5 48.0264 10.2C47.6864 10.9 47.5164 11.79 47.5164 12.87V21H43.7664V4.98H47.3364V9.24L46.7064 7.98C47.2464 6.94 48.0264 6.15 49.0464 5.61C50.0864 5.07 51.2664 4.8 52.5864 4.8C54.0864 4.8 55.3864 5.17 56.4864 5.91C57.6064 6.65 58.3464 7.77 58.7064 9.27L57.2364 8.76C57.7564 7.56 58.6164 6.6 59.8164 5.88C61.0164 5.16 62.4064 4.8 63.9864 4.8ZM82.9077 21.21C81.1277 21.21 79.5677 20.86 78.2277 20.16C76.9077 19.44 75.8777 18.46 75.1377 17.22C74.4177 15.98 74.0577 14.57 74.0577 12.99C74.0577 11.39 74.4077 9.98 75.1077 8.76C75.8277 7.52 76.8077 6.55 78.0477 5.85C79.3077 5.15 80.7377 4.8 82.3377 4.8C83.8977 4.8 85.2877 5.14 86.5077 5.82C87.7277 6.5 88.6877 7.46 89.3877 8.7C90.0877 9.94 90.4377 11.4 90.4377 13.08C90.4377 13.24 90.4277 13.42 90.4077 13.62C90.4077 13.82 90.3977 14.01 90.3777 14.19H77.0277V11.7H88.3977L86.9277 12.48C86.9477 11.56 86.7577 10.75 86.3577 10.05C85.9577 9.35 85.4077 8.8 84.7077 8.4C84.0277 8 83.2377 7.8 82.3377 7.8C81.4177 7.8 80.6077 8 79.9077 8.4C79.2277 8.8 78.6877 9.36 78.2877 10.08C77.9077 10.78 77.7177 11.61 77.7177 12.57V13.17C77.7177 14.13 77.9377 14.98 78.3777 15.72C78.8177 16.46 79.4377 17.03 80.2377 17.43C81.0377 17.83 81.9577 18.03 82.9977 18.03C83.8977 18.03 84.7077 17.89 85.4277 17.61C86.1477 17.33 86.7877 16.89 87.3477 16.29L89.3577 18.6C88.6377 19.44 87.7277 20.09 86.6277 20.55C85.5477 20.99 84.3077 21.21 82.9077 21.21ZM102.691 21V-1.43051e-06H111.871C114.151 -1.43051e-06 116.151 0.439999 117.871 1.32C119.591 2.2 120.931 3.42 121.891 4.98C122.851 6.54 123.331 8.38 123.331 10.5C123.331 12.6 122.851 14.44 121.891 16.02C120.931 17.58 119.591 18.8 117.871 19.68C116.151 20.56 114.151 21 111.871 21H102.691ZM106.591 17.7H111.691C113.271 17.7 114.631 17.4 115.771 16.8C116.931 16.2 117.821 15.36 118.441 14.28C119.081 13.2 119.401 11.94 119.401 10.5C119.401 9.04 119.081 7.78 118.441 6.72C117.821 5.64 116.931 4.8 115.771 4.2C114.631 3.6 113.271 3.3 111.691 3.3H106.591V17.7ZM134.646 21.21C132.866 21.21 131.306 20.86 129.966 20.16C128.646 19.44 127.616 18.46 126.876 17.22C126.156 15.98 125.796 14.57 125.796 12.99C125.796 11.39 126.146 9.98 126.846 8.76C127.566 7.52 128.546 6.55 129.786 5.85C131.046 5.15 132.476 4.8 134.076 4.8C135.636 4.8 137.026 5.14 138.246 5.82C139.466 6.5 140.426 7.46 141.126 8.7C141.826 9.94 142.176 11.4 142.176 13.08C142.176 13.24 142.166 13.42 142.146 13.62C142.146 13.82 142.136 14.01 142.116 14.19H128.766V11.7H140.136L138.666 12.48C138.686 11.56 138.496 10.75 138.096 10.05C137.696 9.35 137.146 8.8 136.446 8.4C135.766 8 134.976 7.8 134.076 7.8C133.156 7.8 132.346 8 131.646 8.4C130.966 8.8 130.426 9.36 130.026 10.08C129.646 10.78 129.456 11.61 129.456 12.57V13.17C129.456 14.13 129.676 14.98 130.116 15.72C130.556 16.46 131.176 17.03 131.976 17.43C132.776 17.83 133.696 18.03 134.736 18.03C135.636 18.03 136.446 17.89 137.166 17.61C137.886 17.33 138.526 16.89 139.086 16.29L141.096 18.6C140.376 19.44 139.466 20.09 138.366 20.55C137.286 20.99 136.046 21.21 134.646 21.21ZM154.658 21.21C153.358 21.21 152.168 20.91 151.088 20.31C150.028 19.71 149.178 18.81 148.538 17.61C147.918 16.39 147.608 14.85 147.608 12.99C147.608 11.11 147.908 9.57 148.508 8.37C149.128 7.17 149.968 6.28 151.028 5.7C152.088 5.1 153.298 4.8 154.658 4.8C156.238 4.8 157.628 5.14 158.828 5.82C160.048 6.5 161.008 7.45 161.708 8.67C162.428 9.89 162.788 11.33 162.788 12.99C162.788 14.65 162.428 16.1 161.708 17.34C161.008 18.56 160.048 19.51 158.828 20.19C157.628 20.87 156.238 21.21 154.658 21.21ZM145.778 26.82V4.98H149.348V8.76L149.228 13.02L149.528 17.28V26.82H145.778ZM154.238 18C155.138 18 155.938 17.8 156.638 17.4C157.358 17 157.928 16.42 158.348 15.66C158.768 14.9 158.978 14.01 158.978 12.99C158.978 11.95 158.768 11.06 158.348 10.32C157.928 9.56 157.358 8.98 156.638 8.58C155.938 8.18 155.138 7.98 154.238 7.98C153.338 7.98 152.528 8.18 151.808 8.58C151.088 8.98 150.518 9.56 150.098 10.32C149.678 11.06 149.468 11.95 149.468 12.99C149.468 14.01 149.678 14.9 150.098 15.66C150.518 16.42 151.088 17 151.808 17.4C152.528 17.8 153.338 18 154.238 18ZM173.545 21.21C171.905 21.21 170.445 20.86 169.165 20.16C167.885 19.44 166.875 18.46 166.135 17.22C165.395 15.98 165.025 14.57 165.025 12.99C165.025 11.39 165.395 9.98 166.135 8.76C166.875 7.52 167.885 6.55 169.165 5.85C170.445 5.15 171.905 4.8 173.545 4.8C175.205 4.8 176.675 5.15 177.955 5.85C179.255 6.55 180.265 7.51 180.985 8.73C181.725 9.95 182.095 11.37 182.095 12.99C182.095 14.57 181.725 15.98 180.985 17.22C180.265 18.46 179.255 19.44 177.955 20.16C176.675 20.86 175.205 21.21 173.545 21.21ZM173.545 18C174.465 18 175.285 17.8 176.005 17.4C176.725 17 177.285 16.42 177.685 15.66C178.105 14.9 178.315 14.01 178.315 12.99C178.315 11.95 178.105 11.06 177.685 10.32C177.285 9.56 176.725 8.98 176.005 8.58C175.285 8.18 174.475 7.98 173.575 7.98C172.655 7.98 171.835 8.18 171.115 8.58C170.415 8.98 169.855 9.56 169.435 10.32C169.015 11.06 168.805 11.95 168.805 12.99C168.805 14.01 169.015 14.9 169.435 15.66C169.855 16.42 170.415 17 171.115 17.4C171.835 17.8 172.645 18 173.545 18ZM191.71 21.21C189.95 21.21 188.59 20.76 187.63 19.86C186.67 18.94 186.19 17.59 186.19 15.81V1.44H189.94V15.72C189.94 16.48 190.13 17.07 190.51 17.49C190.91 17.91 191.46 18.12 192.16 18.12C193 18.12 193.7 17.9 194.26 17.46L195.31 20.13C194.87 20.49 194.33 20.76 193.69 20.94C193.05 21.12 192.39 21.21 191.71 21.21ZM183.55 8.1V5.1H194.23V8.1H183.55Z" fill="currentColor"/>
</svg>
