<svg width="74" height="21" viewBox="0 0 74 21" fill="none" xmlns="http://www.w3.org/2000/svg">
    <path d="M0.806651 21V-1.43051e-06H5.66665V21H0.806651ZM15.0004 16.2L14.7304 10.59L24.7804 -1.43051e-06H30.1804L21.1204 9.75L18.4204 12.63L15.0004 16.2ZM10.6504 21V-1.43051e-06H15.4804V21H10.6504ZM25.0204 21L17.5504 11.85L20.7304 8.4L30.6904 21H25.0204ZM37.3274 8.46H47.4374V12.24H37.3274V8.46ZM37.6874 17.1H49.1174V21H32.8574V-1.43051e-06H48.7274V3.9H37.6874V17.1ZM50.2244 21L59.5844 -1.43051e-06H64.3844L73.7744 21H68.6744L60.9944 2.46H62.9144L55.2044 21H50.2244ZM54.9044 16.5L56.1944 12.81H66.9944L68.3144 16.5H54.9044Z" fill="currentColor"/>
</svg>
