<svg width="98" height="23" viewBox="0 0 98 23" fill="none" xmlns="http://www.w3.org/2000/svg">
    <path d="M0.313055 22V0.181818H4.92598V18.1967H14.2797V22H0.313055ZM24.6428 22.3196C22.9879 22.3196 21.5568 21.968 20.3495 21.2649C19.1492 20.5547 18.2223 19.5675 17.5689 18.3033C16.9155 17.032 16.5888 15.5582 16.5888 13.8821C16.5888 12.1918 16.9155 10.7145 17.5689 9.45028C18.2223 8.17898 19.1492 7.19176 20.3495 6.48864C21.5568 5.77841 22.9879 5.4233 24.6428 5.4233C26.2976 5.4233 27.7252 5.77841 28.9254 6.48864C30.1328 7.19176 31.0632 8.17898 31.7166 9.45028C32.3701 10.7145 32.6968 12.1918 32.6968 13.8821C32.6968 15.5582 32.3701 17.032 31.7166 18.3033C31.0632 19.5675 30.1328 20.5547 28.9254 21.2649C27.7252 21.968 26.2976 22.3196 24.6428 22.3196ZM24.6641 18.804C25.4169 18.804 26.0455 18.5909 26.5497 18.1648C27.054 17.7315 27.434 17.142 27.6897 16.3963C27.9524 15.6506 28.0838 14.8018 28.0838 13.8501C28.0838 12.8984 27.9524 12.0497 27.6897 11.304C27.434 10.5582 27.054 9.96875 26.5497 9.53551C26.0455 9.10227 25.4169 8.88565 24.6641 8.88565C23.9041 8.88565 23.2649 9.10227 22.7465 9.53551C22.2351 9.96875 21.848 10.5582 21.5852 11.304C21.3296 12.0497 21.2017 12.8984 21.2017 13.8501C21.2017 14.8018 21.3296 15.6506 21.5852 16.3963C21.848 17.142 22.2351 17.7315 22.7465 18.1648C23.2649 18.5909 23.9041 18.804 24.6641 18.804ZM38.4656 22L34.0125 5.63636H38.6041L41.1396 16.6307H41.2887L43.9308 5.63636H48.4372L51.1218 16.5668H51.2603L53.7532 5.63636H58.3342L53.8917 22H49.087L46.2745 11.7088H46.0721L43.2596 22H38.4656ZM67.8024 22.3196C66.1192 22.3196 64.6703 21.9787 63.4558 21.2969C62.2484 20.608 61.318 19.6349 60.6646 18.3778C60.0112 17.1136 59.6845 15.6186 59.6845 13.8928C59.6845 12.2095 60.0112 10.7322 60.6646 9.46094C61.318 8.18963 62.2378 7.19886 63.4239 6.48864C64.617 5.77841 66.0162 5.4233 67.6213 5.4233C68.7008 5.4233 69.7058 5.5973 70.6362 5.94531C71.5737 6.28622 72.3905 6.80114 73.0865 7.49006C73.7896 8.17898 74.3365 9.04545 74.7271 10.0895C75.1177 11.1264 75.3131 12.3409 75.3131 13.733V14.9794H61.4956V12.1669H71.041C71.041 11.5135 70.899 10.9347 70.6149 10.4304C70.3308 9.92614 69.9366 9.53196 69.4324 9.24787C68.9352 8.95668 68.3564 8.81108 67.6959 8.81108C67.0069 8.81108 66.3962 8.97088 65.8635 9.29048C65.3379 9.60298 64.926 10.0256 64.6277 10.5582C64.3294 11.0838 64.1767 11.6697 64.1696 12.3161V14.9901C64.1696 15.7997 64.3187 16.4993 64.617 17.0888C64.9224 17.6783 65.3521 18.1328 65.9061 18.4524C66.4601 18.772 67.117 18.9318 67.877 18.9318C68.3812 18.9318 68.8429 18.8608 69.2619 18.7188C69.681 18.5767 70.0396 18.3636 70.3379 18.0795C70.6362 17.7955 70.8635 17.4474 71.0197 17.0355L75.2172 17.3125C75.0041 18.321 74.5673 19.2017 73.9068 19.9545C73.2534 20.7003 72.4082 21.2827 71.3713 21.7017C70.3415 22.1136 69.1518 22.3196 67.8024 22.3196ZM82.078 0.181818V2.48295C82.078 3.13636 81.9501 3.80398 81.6944 4.4858C81.4459 5.16051 81.1121 5.79972 80.693 6.40341C80.274 7 79.8159 7.50781 79.3187 7.92685L77.3159 6.74432C77.671 6.18324 77.9835 5.56179 78.2534 4.87997C78.5304 4.19815 78.6689 3.40625 78.6689 2.50426V0.181818H82.078ZM96.6652 10.3026L92.5103 10.5582C92.4393 10.2031 92.2866 9.88352 92.0522 9.59943C91.8178 9.30824 91.5089 9.07741 91.1254 8.90696C90.749 8.7294 90.298 8.64062 89.7724 8.64062C89.0693 8.64062 88.4762 8.78977 87.9933 9.08807C87.5103 9.37926 87.2688 9.76989 87.2688 10.2599C87.2688 10.6506 87.4251 10.9808 87.7376 11.2507C88.0501 11.5206 88.5863 11.7372 89.3463 11.9006L92.3079 12.4972C93.8988 12.8239 95.0849 13.3494 95.8661 14.0739C96.6474 14.7983 97.038 15.75 97.038 16.929C97.038 18.0014 96.722 18.9425 96.0899 19.7521C95.4649 20.5618 94.6055 21.1939 93.5117 21.6484C92.4251 22.0959 91.1715 22.3196 89.7511 22.3196C87.5849 22.3196 85.859 21.8686 84.5735 20.9666C83.2951 20.0575 82.5458 18.8217 82.3257 17.2592L86.7894 17.0249C86.9244 17.6854 87.2511 18.1896 87.7696 18.5376C88.288 18.8786 88.9521 19.049 89.7617 19.049C90.5572 19.049 91.1964 18.8963 91.6794 18.5909C92.1694 18.2784 92.418 17.8771 92.4251 17.3871C92.418 16.9751 92.244 16.6378 91.9031 16.375C91.5622 16.1051 91.0366 15.8991 90.3264 15.7571L87.4926 15.1925C85.8946 14.8729 84.7049 14.3189 83.9237 13.5305C83.1495 12.7422 82.7625 11.7372 82.7625 10.5156C82.7625 9.46449 83.0465 8.55895 83.6147 7.79901C84.19 7.03906 84.9961 6.45313 86.033 6.04119C87.0771 5.62926 88.2987 5.4233 89.6978 5.4233C91.7646 5.4233 93.391 5.86009 94.5771 6.73366C95.7703 7.60724 96.4663 8.79687 96.6652 10.3026Z" fill="currentColor"/>
</svg>
