<svg width="105" height="26" viewBox="0 0 105 26" fill="none" xmlns="http://www.w3.org/2000/svg">
    <path d="M24.66 3.94V25H19.53V12.37L14.82 25H10.68L5.93995 12.34V25H0.809951V3.94H6.86995L12.78 18.52L18.63 3.94H24.66ZM27.329 16.6C27.329 14.88 27.649 13.37 28.289 12.07C28.949 10.77 29.839 9.77 30.959 9.07C32.079 8.37 33.329 8.02 34.709 8.02C35.889 8.02 36.919 8.26 37.799 8.74C38.699 9.22 39.389 9.85 39.869 10.63V8.26H44.999V25H39.869V22.63C39.369 23.41 38.669 24.04 37.769 24.52C36.889 25 35.859 25.24 34.679 25.24C33.319 25.24 32.079 24.89 30.959 24.19C29.839 23.47 28.949 22.46 28.289 21.16C27.649 19.84 27.329 18.32 27.329 16.6ZM39.869 16.63C39.869 15.35 39.509 14.34 38.789 13.6C38.089 12.86 37.229 12.49 36.209 12.49C35.189 12.49 34.319 12.86 33.599 13.6C32.899 14.32 32.549 15.32 32.549 16.6C32.549 17.88 32.899 18.9 33.599 19.66C34.319 20.4 35.189 20.77 36.209 20.77C37.229 20.77 38.089 20.4 38.789 19.66C39.509 18.92 39.869 17.91 39.869 16.63ZM58.9403 25L53.8403 17.98V25H48.7103V2.8H53.8403V15.07L58.9103 8.26H65.2403L58.2803 16.66L65.3003 25H58.9403ZM69.8353 6.52C68.9353 6.52 68.1953 6.26 67.6153 5.74C67.0553 5.2 66.7753 4.54 66.7753 3.76C66.7753 2.96 67.0553 2.3 67.6153 1.78C68.1953 1.24 68.9353 0.969998 69.8353 0.969998C70.7153 0.969998 71.4353 1.24 71.9953 1.78C72.5753 2.3 72.8653 2.96 72.8653 3.76C72.8653 4.54 72.5753 5.2 71.9953 5.74C71.4353 6.26 70.7153 6.52 69.8353 6.52ZM72.3853 8.26V25H67.2553V8.26H72.3853ZM85.4329 20.65V25H82.8229C80.9629 25 79.5129 24.55 78.4729 23.65C77.4329 22.73 76.9129 21.24 76.9129 19.18V12.52H74.8729V8.26H76.9129V4.18H82.0429V8.26H85.4029V12.52H82.0429V19.24C82.0429 19.74 82.1629 20.1 82.4029 20.32C82.6429 20.54 83.0429 20.65 83.6029 20.65H85.4329ZM87.2704 16.6C87.2704 14.88 87.5904 13.37 88.2304 12.07C88.8904 10.77 89.7804 9.77 90.9004 9.07C92.0204 8.37 93.2704 8.02 94.6504 8.02C95.8304 8.02 96.8604 8.26 97.7404 8.74C98.6404 9.22 99.3304 9.85 99.8104 10.63V8.26H104.94V25H99.8104V22.63C99.3104 23.41 98.6104 24.04 97.7104 24.52C96.8304 25 95.8004 25.24 94.6204 25.24C93.2604 25.24 92.0204 24.89 90.9004 24.19C89.7804 23.47 88.8904 22.46 88.2304 21.16C87.5904 19.84 87.2704 18.32 87.2704 16.6ZM99.8104 16.63C99.8104 15.35 99.4504 14.34 98.7304 13.6C98.0304 12.86 97.1704 12.49 96.1504 12.49C95.1304 12.49 94.2604 12.86 93.5404 13.6C92.8404 14.32 92.4904 15.32 92.4904 16.6C92.4904 17.88 92.8404 18.9 93.5404 19.66C94.2604 20.4 95.1304 20.77 96.1504 20.77C97.1704 20.77 98.0304 20.4 98.7304 19.66C99.4504 18.92 99.8104 17.91 99.8104 16.63Z" fill="currentColor"/>
</svg>
